<svg width="121" height="121" viewBox="0 0 121 121" fill="none" xmlns="http://www.w3.org/2000/svg">
<g id="Accomodation Icon">
<circle id="Ellipse 13" cx="60.1177" cy="60.9822" r="59.5" stroke="white"/>
<g id="Group">
<path id="Vector" d="M58.9766 39.0795C58.7361 39.129 57.2358 39.4108 55.6532 39.7079C52.9944 40.2067 51.0003 40.5799 45.9993 41.5167C44.9547 41.7109 42.9923 42.0803 41.6313 42.3355C40.2766 42.5906 38.3078 42.96 37.2633 43.1542C35.1806 43.5465 32.0407 44.1329 27.6094 44.9631C26.0268 45.2601 24.2036 45.6029 23.5579 45.7247C22.9122 45.8428 21.6271 46.0865 20.6966 46.2579L19 46.5778V48.299V50.0203L20.1585 49.7994C20.7915 49.6814 21.3739 49.571 21.4562 49.5557L21.5955 49.5291V66.7419V83.9585H22.4184H23.2414L23.254 66.5857L23.273 49.2168L24.9506 48.9007C26.9194 48.5351 34.3703 47.1376 37.2316 46.6006C38.3268 46.395 41.1628 45.8656 43.5304 45.4201C45.898 44.9745 48.734 44.4452 49.8292 44.2396C53.8047 43.4932 57.5903 42.7848 58.5398 42.6059L59.5084 42.4231L60.5719 42.6249C61.1543 42.7353 62.9331 43.0666 64.5157 43.3637C66.0984 43.6607 68.257 44.0644 69.3142 44.2624C70.3651 44.4604 72.0933 44.7841 73.1568 44.9821C74.2203 45.1802 75.9485 45.5039 77.0057 45.7019C83.3804 46.8976 91.572 48.4323 94.6675 49.0112L95.9146 49.2473V66.601V83.9585H96.7376H97.5606V66.7647C97.5606 57.3091 97.5795 49.571 97.6112 49.571C97.6365 49.571 98.1873 49.6738 98.8456 49.7956L100.029 50.0203V48.299V46.5778L99.6053 46.4978C99.3647 46.4521 97.8771 46.1741 96.2945 45.8771C94.7119 45.58 92.319 45.1307 90.9769 44.8793C86.5519 44.053 84.7351 43.7102 82.779 43.3446C81.7155 43.1466 79.9873 42.8229 78.9365 42.6249C77.8793 42.4269 75.6953 42.0156 74.0747 41.7148C66.6301 40.3172 65.1868 40.0468 62.4457 39.5327C60.8378 39.2318 59.4957 38.9843 59.4704 38.9881C59.4451 38.9881 59.2235 39.03 58.9766 39.0795Z" fill="white"/>
<path id="Vector_2" d="M33.9208 61.182C33.0219 61.361 32.4205 61.7418 32.0533 62.3625C31.9584 62.5225 31.9457 63.4021 31.9331 73.2462L31.9141 83.9585H34.8261H37.7381V81.2547V78.5509H59.8312H81.9244V81.2357V83.9204H84.7731H87.6218L87.6091 75.5882C87.5901 67.5797 87.5838 67.2522 87.4699 67.0503C87.3243 66.7876 87.0837 66.4982 86.8685 66.3306C86.6089 66.125 86.0075 65.8774 85.5517 65.7937C84.1907 65.5423 82.836 65.9307 82.2029 66.7609C81.8738 67.1951 81.8674 67.2941 81.8611 70.8851V74.2097H59.7363H37.6178L37.5988 68.4098C37.5798 62.9033 37.5735 62.6024 37.4595 62.4044C37.1557 61.856 36.6176 61.4676 35.8642 61.2543C35.3135 61.0982 34.4905 61.0677 33.9208 61.182Z" fill="white"/>
<path id="Vector_3" d="M43.4035 63.4594C40.4662 63.6117 38.3202 65.2569 38.6304 67.1076C38.9216 68.8594 41.2828 70.1351 44.0682 70.0475C44.8342 70.0247 45.385 69.9333 46.1003 69.7124C47.0942 69.4039 47.8348 68.9355 48.3729 68.2881C49.0693 67.4504 49.1706 66.5516 48.6831 65.6567C48.1387 64.6704 46.8536 63.8935 45.2647 63.5889C44.9292 63.5242 43.8024 63.4175 43.6884 63.4404C43.6694 63.4442 43.5428 63.4518 43.4035 63.4594Z" fill="white"/>
<path id="Vector_4" d="M51.1015 65.8164C50.2912 65.9916 49.7278 66.3915 49.4809 66.9627C49.405 67.1379 49.386 67.4882 49.386 68.7906V70.4014H45.1952C40.707 70.4014 40.593 70.4052 39.9157 70.5956C39.4599 70.7251 38.9724 71.0183 38.7382 71.3078C38.542 71.5477 38.5293 71.582 38.5293 71.9818C38.5293 72.374 38.542 72.4159 38.7319 72.6558C39.08 73.1014 39.7701 73.4175 40.612 73.5241C40.8272 73.5508 42.8403 73.5622 46.6955 73.5546L52.4562 73.5431L52.8171 73.4403C53.2665 73.3147 53.7413 73.0519 53.9629 72.8082C54.3237 72.4121 54.3237 72.3931 54.3237 69.7122C54.3237 68.1965 54.2984 67.1721 54.2604 67.0465C54.1021 66.5514 53.602 66.1249 52.9183 65.904C52.5638 65.7936 52.4562 65.7783 51.9498 65.7669C51.5446 65.7593 51.2978 65.7707 51.1015 65.8164Z" fill="white"/>
<path id="Vector_5" d="M55.02 69.6779V73.5242H67.8391H80.6645L80.6455 70.809C80.6202 68.128 80.6202 68.0938 80.481 67.8196C80.0378 66.9513 79.1579 66.3572 77.8538 66.045C76.9233 65.8241 77.4107 65.8317 65.7437 65.8317H55.02V69.6779Z" fill="white"/>
</g>
</g>
</svg>
