<svg width="120" height="121" viewBox="0 0 120 121" fill="none" xmlns="http://www.w3.org/2000/svg">
<g id="Car Icon">
<circle id="Ellipse 13" cx="60" cy="60.2654" r="59.5" stroke="white"/>
<g id="Group">
<g id="Group_2">
<path id="Vector" d="M96.6798 55.4076L90.0126 52.6112L84.1278 43.9875C82.4269 41.4879 79.4335 39.9725 76.219 39.9882H51.1489C48.2405 39.9882 45.4852 41.2223 43.7164 43.347L36.1137 52.4862L23.4426 55.6732C20.2281 56.4856 18 59.1883 18 62.2503V66.7028C18 70.4678 21.2656 73.5767 25.3645 73.5767H26.4531C27.7627 78.2166 32.9162 80.9974 37.9676 79.7945C41.2842 78.9977 43.8864 76.6231 44.7368 73.5767H73.3106C74.6202 78.2166 79.7737 80.9974 84.8251 79.7945C88.1417 78.9977 90.7439 76.6231 91.5944 73.5767H93.6353C97.7343 73.5767 101 70.4678 101 66.7028V61.6254C101.017 58.954 99.3161 56.5168 96.6798 55.4076ZM35.5864 76.9199C32.2528 76.9199 29.5485 74.4359 29.5485 71.3739C29.5485 68.3119 32.2528 65.8279 35.5864 65.8279C38.92 65.8279 41.6243 68.3119 41.6243 71.3739C41.6414 74.4203 38.9371 76.9043 35.5864 76.9199ZM82.444 76.9199C79.1104 76.9199 76.4061 74.4359 76.4061 71.3739C76.4061 68.3119 79.1104 65.8279 82.444 65.8279C85.7776 65.8279 88.4819 68.3119 88.4819 71.3739C88.4989 74.4203 85.7946 76.9043 82.444 76.9199ZM93.6353 70.4522H91.8325C91.2712 65.6873 86.5939 62.2503 81.4065 62.7815C77.0013 63.2189 73.5317 66.4216 73.0555 70.4522H44.975C44.4137 65.6873 39.7364 62.2503 34.549 62.7815C30.1438 63.2189 26.6742 66.4216 26.1979 70.4522H25.3475C23.1195 70.4522 21.3846 68.7493 21.3846 66.7028V62.2503C21.3676 60.5787 22.5752 59.1258 24.327 58.6728L37.5764 55.3451C37.9336 55.2514 38.2567 55.0639 38.4778 54.7827L46.4036 45.2373C47.5432 43.8938 49.295 43.1127 51.1489 43.1127H76.219C78.2599 43.097 80.1819 44.05 81.2534 45.6435L87.4103 54.6734C87.5804 54.939 87.8526 55.1421 88.1417 55.267L95.2511 58.2509C96.6798 58.8602 97.5982 60.1725 97.5812 61.6254V66.7028H97.5982C97.5982 68.7493 95.8634 70.4522 93.6353 70.4522Z" fill="white"/>
</g>
</g>
</g>
</svg>
