<svg width="497" height="497" viewBox="0 0 497 497" fill="none" xmlns="http://www.w3.org/2000/svg">
<g id="checked 1" clip-path="url(#clip0)">
<path id="Vector" d="M496.158 248.085C496.158 111.064 385.088 0.00292969 248.082 0.00292969C111.07 0.00292969 0 111.063 0 248.085C0 385.087 111.07 496.155 248.082 496.155C385.088 496.155 496.158 385.087 496.158 248.085Z" fill="#3DBE32"/>
<path id="Vector_2" d="M384.673 164.968C378.833 149.909 366.933 152.286 354.038 154.841C346.337 156.446 312.085 166.472 257.89 223.618C235.4 247.335 220.564 266.243 210.796 280.663C204.829 273.337 197.993 265.499 190.814 258.317C168.736 236.245 144.115 221.087 143.08 220.45C132.748 214.134 119.26 217.384 112.926 227.708C106.6 238.032 109.84 251.542 120.156 257.882C120.367 258.015 141.51 271.087 159.775 289.357C178.402 307.986 195.279 333.179 195.445 333.423C199.554 339.601 206.453 343.206 213.711 343.206C214.957 343.206 216.215 343.101 217.467 342.884C226.033 341.396 232.914 334.991 235.012 326.552C235.065 326.349 243.768 302.296 289.742 253.825C326.771 214.772 351.465 202.36 360.021 198.917C360.103 198.903 360.162 198.897 360.273 198.874C360.232 198.884 360.55 198.737 361.066 198.505C362.535 197.954 363.322 197.743 363.367 197.732C362.945 197.837 362.726 197.863 362.726 197.863L362.712 197.787C366.671 196.06 374.083 192.871 374.245 192.803C385.405 188.218 389.034 176.214 384.673 164.968Z" fill="white"/>
</g>
<defs>
<clipPath id="clip0">
<rect width="496.158" height="496.158" fill="white"/>
</clipPath>
</defs>
</svg>
