<svg width="800" height="390" viewBox="0 0 800 390" fill="none" xmlns="http://www.w3.org/2000/svg">
<path fill-rule="evenodd" clip-rule="evenodd" d="M268.556 50.8252C331.767 50.8252 382.9 103.903 382.9 169.208C382.9 234.652 331.633 287.591 268.556 287.591C205.344 287.591 154.212 234.513 154.212 169.208C154.212 103.764 205.479 50.8252 268.556 50.8252Z" fill="#AB3235"/>
<path fill-rule="evenodd" clip-rule="evenodd" d="M268.561 63.0575C325.196 63.0575 371.095 110.577 371.095 169.213C371.095 227.849 325.196 275.369 268.561 275.369C211.925 275.369 166.027 227.849 166.027 169.213C166.027 110.577 211.925 63.0575 268.561 63.0575Z" fill="url(#paint0_linear_301_25)"/>
<path fill-rule="evenodd" clip-rule="evenodd" d="M296.606 36.7979C296.606 36.7979 282.38 30.2674 272.449 36.1032C262.652 42.0779 245.339 39.9937 245.339 39.9937C245.339 39.9937 255.807 45.9684 264.933 44.9958C274.194 44.0232 268.02 38.7432 284.796 43.7453C292.446 45.9684 296.472 47.3579 299.425 47.9137C304.122 50.5537 308.685 53.1937 311.369 55.2779L309.49 58.3347C309.49 58.3347 311.906 59.4463 315.798 60.0021C317.14 61.8084 318.348 63.7537 319.287 65.2821C314.322 63.6147 305.33 61.3916 299.425 63.4758C290.835 66.3937 279.159 75.5642 275.133 69.8674C271.107 64.0316 252.452 62.92 253.257 65.0042C254.063 67.0884 259.028 68.4779 248.023 71.1179C236.884 73.7579 220.779 74.3137 224.94 75.7031C229.1 77.0926 235.945 77.0926 224.806 79.4547C213.666 81.8168 205.748 80.0105 205.748 80.0105C205.748 80.0105 221.316 83.2063 229.906 80.8442C238.495 78.4821 253.392 74.1747 255.539 76.2589C257.552 78.3431 259.028 84.5958 271.107 78.8989C272.986 78.0653 274.731 77.2316 276.207 76.6758C283.588 81.8168 296.338 90.9873 304.122 98.3515C303.048 98.4905 301.84 98.7684 300.767 99.0463C284.796 102.798 287.078 103.354 274.731 100.714C262.384 98.0737 253.257 102.937 253.257 102.937L240.642 108.912C240.642 108.912 263.189 107.8 280.099 108.356C295.667 108.912 305.464 110.301 311.503 107.522C314.993 113.219 317.408 119.61 318.885 124.057C317.14 165.324 314.724 238.827 314.724 238.827L326.266 239.8L324.387 142.676C325.729 138.924 330.292 126.975 337.271 118.221C342.908 111.274 359.683 99.4631 369.883 92.6547C381.559 92.6547 398.872 92.2379 405.18 89.4589C414.977 85.1516 428.532 83.4842 436.718 85.1516C444.905 86.8189 454.836 78.621 454.836 78.621C454.836 78.621 429.068 82.9284 419.674 75.2863C410.279 67.6442 404.643 78.2042 395.785 81.261C387.062 84.1789 388.941 84.1789 382.901 78.621C376.862 73.0632 372.299 77.9263 367.333 80.9831C362.636 83.7621 344.787 80.0105 337.405 79.0379C343.981 74.0358 359.147 66.3937 368.675 61.9474C374.446 62.3642 381.693 63.6147 387.867 65.1432C399.14 67.9221 425.713 62.0863 425.713 62.0863C425.713 62.0863 426.653 59.8632 414.44 60.6968C402.227 61.5305 403.569 58.4737 404.911 55.139C406.253 51.8042 383.975 48.7474 383.975 48.7474C383.975 48.7474 383.975 48.7474 379.009 50.6926C374.044 52.6379 375.788 49.3032 373.373 48.1916C370.957 47.08 360.623 50.9705 356.999 51.8042C353.376 52.6379 339.418 55.139 331.5 49.859C328.682 48.0526 325.729 47.7748 322.911 48.1916C323.582 46.8021 325.595 43.0505 328.682 40.4106C331.5 37.9095 340.76 33.3242 345.055 31.379C354.718 31.9348 360.757 32.9074 364.381 29.5727C368.407 25.8211 381.962 22.6253 381.962 22.6253C381.962 22.6253 367.065 18.3179 355.926 22.0695C344.787 25.8211 346.263 26.3769 337.674 23.7369C329.084 21.0969 322.642 25.96 322.642 25.96L322.24 26.2379L322.106 19.8464C323.448 19.5685 324.521 18.8737 324.521 18.8737L322.106 18.04V15.8169V18.04L318.348 16.7895C318.348 16.7895 311.906 14.1495 308.282 15.4001C304.659 16.6506 299.559 20.5411 297.948 18.04C296.204 15.539 288.285 15.1222 288.688 15.9558C288.956 16.7895 291.104 17.4843 286.407 18.5958C281.709 19.7074 274.865 19.9853 276.609 20.5411C278.354 21.0969 281.307 21.0969 276.609 22.2085C271.912 23.1811 268.423 22.4864 268.423 22.4864C268.423 22.4864 274.999 23.8758 278.623 22.9032C282.246 21.9306 288.688 20.1243 289.493 20.9579C290.299 21.7916 290.97 24.5706 296.069 22.0695L296.606 21.7916C299.156 23.0421 303.182 25.2653 307.074 27.3495C309.624 28.739 312.04 30.1285 314.053 31.6569L313.651 31.9348H314.322C317.274 34.019 319.556 36.3811 321.032 39.299C319.421 38.8821 317.543 38.1874 315.127 37.0758C308.014 33.7411 296.472 33.1853 296.74 37.3537L296.606 36.7979ZM308.551 97.6568C312.308 97.3789 316.2 97.24 319.824 97.3789L319.958 94.1831C306.135 90.1537 303.048 90.9873 303.048 90.9873L320.227 86.2631C320.361 81.5389 320.495 76.9537 320.629 72.2295C315.529 73.7579 309.356 80.2884 308.014 81.8168C306.269 83.901 294.056 80.4274 290.835 77.2316C288.285 74.8695 285.065 73.6189 278.22 75.7031C282.783 78.0653 289.493 82.3726 299.29 89.8758C302.914 92.6547 306.001 95.1558 308.551 97.5179V97.6568ZM323.313 97.6568C331.5 98.2126 337.674 99.4631 337.674 99.4631C337.674 99.4631 330.426 100.714 323.448 102.52L323.984 127.53C325.998 123.64 331.634 115.72 347.739 104.187C355.389 98.6294 361.16 94.8779 365.589 92.3768C361.294 92.3768 358.61 92.2379 358.61 92.2379C358.61 92.2379 341.163 81.4 343.847 87.6526C346.397 93.7663 339.418 99.88 324.253 95.5726C323.984 96.1284 323.716 96.6842 323.448 97.101V97.7958L323.313 97.6568ZM319.556 103.632C318.214 104.048 316.872 104.465 315.664 105.021C317.14 106.827 318.348 108.356 319.287 109.745C319.421 107.8 319.421 105.716 319.556 103.632ZM322.24 43.3284V40.9663C324.253 39.8548 325.461 39.16 325.461 39.16C325.461 39.16 324.387 39.299 322.24 39.0211L322.106 30.9621C327.608 30.6842 334.989 30.5453 341.163 30.8232C341.968 30.8232 342.773 30.9621 343.444 30.9621C341.297 31.7958 338.076 33.1853 333.245 35.5474C325.729 39.4379 323.179 42.0779 322.374 43.1895L322.24 43.3284ZM297.277 20.819C301.304 19.1516 303.048 19.7074 304.256 20.819C305.598 22.2085 310.832 23.5979 311.637 22.7643C312.443 21.9306 316.737 17.3453 318.75 18.8737C319.556 19.4295 320.629 19.5685 321.569 19.2906L321.435 25.8211L315.395 29.8506C313.785 28.8779 311.906 27.6274 309.49 26.3769C303.451 23.1811 299.559 21.5137 297.277 20.68V20.819ZM317.14 31.1011C318.348 31.1011 319.824 30.9621 321.435 30.9621L321.3 35.1306C320.629 34.2969 319.421 32.9074 317.006 31.1011H317.14ZM323.716 85.4295L323.045 85.5684L322.777 72.0905C323.448 72.0905 324.119 72.3684 324.656 72.7853C329.621 76.2589 337.405 71.6737 337.405 71.6737L322.777 66.8105H322.642V65.0042L322.911 63.3368C322.911 63.3368 322.911 63.0589 322.508 62.3642V60.28C323.582 60.1411 324.79 60.0021 325.863 59.7242C334.855 57.5011 338.881 59.1684 345.323 61.6695C351.765 64.1705 354.181 65.8379 357.939 63.0589C359.147 62.2253 361.562 61.8084 364.515 61.6695C360.086 63.4758 354.047 66.2547 346.263 70.2842C332.439 77.3705 326.4 82.5116 323.716 85.5684V85.4295ZM303.585 48.0526C305.33 47.7748 307.209 47.219 310.161 46.1074C314.858 44.44 318.616 42.7727 321.3 41.3832L321.166 48.1916C316.737 49.3032 313.248 52.0821 313.248 52.0821L312.577 53.1937C310.295 51.8042 307.611 50.1369 304.39 48.3305L303.719 47.9137L303.585 48.0526ZM343.847 3.03375C343.847 3.03375 332.574 -0.578877 322.508 2.06112C312.443 4.70112 312.711 -2.66308 306.538 1.08849C300.364 4.70112 289.493 7.8969 289.493 7.8969C289.493 7.8969 297.948 6.36848 310.027 8.45269C322.106 10.5369 325.461 4.28428 334.453 7.48006C343.444 10.5369 352.705 6.92427 352.705 6.92427L343.713 3.31165L343.847 3.03375Z" fill="#201E1E"/>
<path d="M73.5421 128.084L69.5158 131.975L70.5895 133.087L74.3473 128.918L73.5421 128.084ZM178.76 238.686C178.76 237.297 177.955 233.406 176.344 227.015C174.734 220.623 173.66 217.289 173.123 217.011C169.634 213.954 166.682 212.009 164.266 210.619C162.387 212.286 160.24 213.12 157.824 213.12C156.75 213.12 150.845 212.286 148.966 212.286L146.819 213.398V240.632C146.819 242.021 147.893 251.747 150.04 270.089C150.04 272.034 146.551 274.257 143.598 276.202C141.988 278.703 140.914 280.926 140.109 282.316C139.035 281.204 138.498 280.093 138.498 278.703C136.619 280.649 134.204 282.872 130.714 285.373C127.493 287.596 125.346 288.707 124.541 288.707C123.199 288.707 124.272 287.596 122.93 287.596C123.735 287.596 118.636 289.819 107.362 293.987C96.3572 298.156 87.2311 300.379 79.984 300.379C70.0527 300.379 60.9266 296.211 52.8742 288.152C45.0902 279.815 41.064 270.644 41.064 260.362C41.064 253.693 42.9429 241.465 46.7007 223.819C46.9691 222.43 48.5796 219.373 50.9953 214.926C53.411 211.036 54.4847 208.257 54.4847 206.312C54.4847 205.478 54.2163 204.922 53.9479 204.089L55.5583 202.421C57.9741 200.476 61.4634 195.474 66.2949 187.693C71.3947 179.912 75.6894 174.632 79.4472 171.853C84.0102 165.739 87.4996 161.015 89.9153 157.958C95.0151 155.457 98.7729 153.512 101.457 152.122C105.483 149.343 109.241 146.564 112.999 143.785C118.367 139.895 122.93 137.95 126.688 137.95C132.325 137.95 136.888 140.729 140.109 146.009C142.256 149.621 144.135 154.901 146.014 162.404C147.893 169.908 149.235 174.354 150.308 175.743H153.261C155.945 174.076 159.434 172.687 163.729 171.297C170.976 169.352 173.66 167.962 173.66 159.07C173.66 153.234 171.781 147.12 167.755 140.729C163.997 134.337 159.434 130.169 154.335 127.668C138.767 120.72 127.225 117.108 119.709 117.386C112.999 117.663 108.436 117.941 105.483 118.775C101.994 119.887 99.3098 120.72 97.6993 121.276C97.4309 121.554 96.894 123.777 95.0151 123.777C93.6731 123.777 91.7942 122.666 91.5258 122.666C88.5732 123.499 85.8891 127.39 82.9365 134.337C82.1313 133.226 80.7892 131.836 80.7892 131.558C81.8629 130.447 82.3997 129.335 82.3997 128.223C78.6419 130.447 75.9578 132.114 74.0789 133.226C73.0052 134.893 72.2 136.282 71.6632 137.116C71.3947 136.838 71.3947 136.56 71.6632 136.004C71.6632 135.727 71.1263 135.449 70.3211 135.449C69.2474 135.449 64.9528 139.617 63.6107 139.895C63.6107 140.729 63.8792 142.118 64.6844 144.619C64.9528 146.009 64.6844 147.12 63.8792 147.954C62.2687 146.009 61.4634 145.175 61.4634 145.175V141.562C59.0477 144.341 57.1688 147.12 55.8268 149.621C57.1688 149.621 59.853 147.676 60.1214 147.676C59.3161 146.842 59.0477 146.009 59.853 145.175C60.1214 145.175 60.9266 145.731 61.7319 146.564C59.0477 151.011 56.632 154.623 54.2163 157.402C51.5321 162.682 49.3848 167.129 48.0428 170.185C45.627 170.741 43.4797 171.575 41.8692 172.409C41.6008 174.91 41.3324 177.689 41.064 180.468C40.2588 183.802 38.9167 186.025 37.0378 186.859V192.695C36.7694 192.139 35.9642 191.861 35.1589 191.861C35.1589 193.806 34.3537 195.196 32.7432 196.308C32.4748 196.03 32.4748 195.196 32.4748 193.806C30.3275 193.806 29.2538 194.64 28.9854 200.476C28.9854 203.255 28.4486 205.478 27.6433 206.868C27.9117 209.924 27.1065 213.537 24.6908 217.705C25.2276 217.705 26.0328 218.261 27.1065 219.095L25.7644 220.484C25.496 220.484 25.496 218.817 24.154 218.817C22.8119 218.817 22.0066 219.095 22.0066 219.929C20.1278 229.099 19.3225 233.545 19.3225 232.712V258.834C25.7644 273.006 29.2538 280.232 29.5222 281.065C35.1589 290.792 41.3324 297.739 48.3112 301.352C52.3374 305.52 56.0952 310.244 59.0477 310.244C60.3898 310.244 60.3898 309.411 61.7319 309.411C62.8055 309.411 66.0265 313.857 67.3685 313.857C69.2474 313.857 70.0527 314.691 70.3211 314.691C70.3211 313.857 70.8579 313.023 71.6632 312.19C74.0789 314.413 76.2262 315.524 78.6419 315.524C78.9103 315.524 79.984 315.524 81.326 315.246C82.1313 314.968 82.9365 314.968 83.4734 315.246C82.9365 315.802 82.6681 316.358 82.6681 317.192C84.8154 316.358 87.4996 315.802 90.9889 316.08C95.552 316.358 97.9677 316.636 98.7729 316.636L101.189 313.857C103.604 314.968 105.215 315.524 106.289 315.524C108.167 315.524 108.167 313.301 108.436 313.301C112.999 311.912 116.22 310.8 118.367 309.966C122.93 306.91 125.883 304.408 127.225 303.019C128.03 304.408 128.567 305.242 128.835 305.798C137.693 297.461 143.598 291.903 147.087 288.846C147.087 288.569 148.161 288.569 150.308 288.569C152.187 294.126 158.763 342.341 162.521 357.764C166.011 371.937 168.963 382.775 171.379 390C174.331 379.718 175.673 374.16 175.942 372.771C177.552 370.547 178.358 369.436 178.358 369.714C178.358 368.324 178.089 366.379 178.089 363.322V357.208C178.089 353.874 174.466 311.217 174.734 304.825C175.002 298.156 175.271 293.154 175.271 289.819C175.271 286.762 173.66 278.981 173.66 276.48C173.929 270.366 175.002 262.585 176.344 252.859C177.955 243.133 178.76 238.409 178.76 238.686ZM67.1001 150.177C65.2212 153.234 62.5371 156.569 59.5845 159.625C60.6582 154.068 62.5371 150.177 64.9528 147.954L67.1001 150.177ZM63.8792 166.851L62.5371 166.295L63.6107 163.238H64.9528L63.8792 166.851ZM52.069 180.19V176.855H53.6794V180.19H52.069ZM53.411 191.028L52.069 190.472L53.411 188.249L54.4847 188.526L53.411 191.028ZM134.606 287.874L133.532 287.318L134.606 284.817L135.948 285.373L134.606 287.874ZM126.554 294.821L125.748 290.653H127.091L128.164 294.821H126.554ZM114.744 298.434L113.67 297.878L114.744 295.655L115.817 296.211L114.744 298.434ZM115.28 307.326L114.475 301.213H115.817L116.891 307.326H115.28ZM87.0969 310.105L85.7549 309.827L86.8285 306.771H88.1706L87.0969 310.105Z" fill="#AB3235"/>
<path fill-rule="evenodd" clip-rule="evenodd" d="M114.613 271.615C114.613 271.615 143.87 261.889 169.503 252.718C162.927 258.832 159.706 263.695 156.619 268.419C163.33 260.916 171.919 251.884 181.179 248.55C192.721 244.381 202.25 240.63 206.142 238.546C219.16 231.598 228.957 217.565 264.924 219.371C284.116 220.343 293.242 225.484 296.865 228.541C294.315 230.487 287.739 241.047 285.055 244.103C295.792 234.516 303.307 228.958 315.654 224.373C326.391 220.482 338.47 220.204 349.072 220.621C365.042 221.177 377.792 226.179 388.126 233.821C392.555 237.017 407.452 248.411 432.012 250.634C433.891 250.773 415.236 256.609 400.876 264.112C411.881 260.36 430.133 255.08 439.93 252.579C443.822 251.607 451.74 249.661 458.45 250.217C479.252 252.023 526.091 263.973 560.85 274.533C591.047 283.703 812.219 292.04 799.47 292.04L0 292.318L114.478 271.615H114.613Z" fill="#201E1E"/>
<path d="M196.088 333.594H234.068V338.874H218.098V380.002H212.058V338.874H196.088V333.594ZM258.091 337.901C253.662 337.901 250.173 339.568 247.623 343.042C245.073 346.516 243.731 351.101 243.731 356.937C243.731 362.773 245.073 367.358 247.623 370.832C250.173 374.166 253.662 375.973 258.091 375.973C262.52 375.973 266.009 374.305 268.559 370.832C271.109 367.358 272.451 362.773 272.451 356.937C272.451 351.101 271.109 346.377 268.559 343.042C266.009 339.707 262.52 337.901 258.091 337.901ZM258.091 332.76C264.399 332.76 269.365 334.983 273.122 339.291C276.88 343.598 278.759 349.573 278.759 356.798C278.759 364.162 276.88 369.998 273.122 374.305C269.365 378.613 264.265 380.836 258.091 380.836C251.783 380.836 246.684 378.613 242.926 374.305C239.168 369.998 237.289 364.162 237.289 356.798C237.289 349.434 239.168 343.598 242.926 339.291C246.684 334.983 251.783 332.76 258.091 332.76ZM287.617 333.594H293.656V361.8C293.656 366.802 294.461 370.415 296.206 372.499C297.951 374.722 300.769 375.834 304.661 375.834C308.553 375.834 311.371 374.722 313.116 372.499C314.861 370.276 315.666 366.663 315.666 361.8V333.594H321.705V362.634C321.705 368.747 320.229 373.333 317.411 376.389C314.458 379.446 310.298 380.975 304.661 380.975C299.024 380.975 294.73 379.446 291.777 376.389C288.825 373.333 287.482 368.747 287.482 362.634V333.594H287.617ZM354.586 358.326C355.928 358.743 357.136 359.716 358.344 361.244C359.552 362.773 360.759 364.857 362.101 367.358L368.275 380.002H361.699L355.928 368.053C354.452 364.996 352.975 362.912 351.633 361.8C350.291 360.827 348.412 360.272 345.997 360.272H339.42V379.863H333.381V333.455H347.07C352.17 333.455 356.062 334.566 358.612 336.789C361.162 339.013 362.37 342.347 362.37 346.794C362.37 349.712 361.699 352.213 360.357 354.019C359.015 355.964 357.136 357.354 354.586 358.048V358.326ZM339.42 338.874V355.408H347.07C350.023 355.408 352.17 354.714 353.646 353.324C355.123 351.935 355.928 349.851 355.928 347.211C355.928 344.432 355.123 342.486 353.646 341.097C352.17 339.707 349.889 339.013 347.07 339.013H339.42V338.874ZM403.035 335.261V341.375C400.753 340.263 398.606 339.429 396.458 338.874C394.445 338.318 392.432 338.04 390.553 338.04C387.198 338.04 384.648 338.735 382.903 339.985C381.159 341.375 380.219 343.181 380.219 345.682C380.219 347.766 380.756 349.295 381.964 350.267C383.172 351.379 385.453 352.213 388.809 352.768L392.432 353.602C396.995 354.436 400.35 356.103 402.498 358.326C404.645 360.549 405.719 363.606 405.719 367.358C405.719 371.804 404.242 375.278 401.29 377.64C398.337 380.002 394.043 381.114 388.54 381.114C386.393 381.114 384.111 380.836 381.83 380.419C379.414 379.863 376.998 379.168 374.448 378.196V371.665C376.864 373.055 379.28 374.166 381.696 374.861C384.111 375.556 386.393 375.973 388.674 375.973C392.164 375.973 394.848 375.278 396.727 373.888C398.606 372.499 399.545 370.415 399.545 367.914C399.545 365.691 398.874 363.884 397.532 362.495C396.19 361.244 393.908 360.272 390.822 359.577L387.064 358.882C382.501 357.909 379.28 356.52 377.267 354.575C375.254 352.629 374.18 349.851 374.18 346.238C374.18 342.069 375.522 338.874 378.34 336.512C381.159 334.149 385.051 332.899 389.882 332.899C392.03 332.899 394.177 333.038 396.324 333.455C398.471 333.872 400.753 334.427 403.035 335.261ZM467.722 333.733H505.703V339.013H489.732V380.141H483.693V339.013H467.722V333.733ZM532.812 358.465C534.155 358.882 535.362 359.855 536.57 361.383C537.778 362.912 538.986 364.996 540.328 367.497L546.502 380.141H539.925L534.155 368.192C532.678 365.135 531.202 363.051 529.86 361.939C528.518 360.966 526.639 360.411 524.223 360.411H517.647V380.002H511.608V333.594H525.297C530.397 333.594 534.289 334.705 536.839 336.928C539.389 339.152 540.596 342.486 540.596 346.933C540.596 349.851 539.925 352.352 538.583 354.158C537.241 356.103 535.362 357.493 532.812 358.187V358.465ZM517.647 339.013V355.547H525.297C528.249 355.547 530.397 354.853 531.873 353.463C533.349 352.074 534.155 349.989 534.155 347.349C534.155 344.571 533.349 342.625 531.873 341.236C530.397 339.846 528.115 339.152 525.297 339.152H517.647V339.013ZM566.901 339.985L558.714 363.051H575.222L566.901 339.985ZM563.412 333.733H570.256L587.3 380.141H580.993L576.967 368.192H556.701L552.675 380.141H546.233L563.412 333.733ZM601.526 380.141L584.348 333.733H590.656L604.882 372.916L619.107 333.733H625.415L608.371 380.141H601.526ZM631.991 333.733H660.309V339.013H638.031V352.768H659.369V358.048H638.031V374.861H660.846V380.141H631.857V333.733H631.991ZM670.911 333.733H676.951V374.861H698.826V380.141H670.911V333.733Z" fill="#373435"/>
<path d="M436.594 356.941C433.776 357.913 431.494 359.581 429.749 361.943C428.139 364.305 427.199 366.945 427.199 370.002C427.199 374.448 428.542 377.922 431.226 380.562C433.91 383.202 437.533 384.452 442.096 384.452C447.062 384.452 451.357 383.202 454.712 380.84C458.067 378.477 459.812 375.699 459.812 372.364C459.812 370.974 459.275 370.002 458.335 369.446C457.396 368.89 455.92 368.473 453.907 368.473C452.296 368.473 450.954 368.612 449.612 369.029C448.27 369.446 447.196 370.002 446.257 370.835C445.854 371.113 445.317 371.808 444.781 372.642C444.11 373.475 443.573 374.031 443.17 374.031C443.036 374.031 442.767 373.892 442.633 373.753C442.499 373.614 442.365 373.336 442.365 373.059C442.365 372.503 442.633 371.808 443.17 370.835C443.707 369.863 444.378 368.89 445.317 368.056C446.659 366.667 448.002 365.555 449.478 364.722C450.954 364.027 452.565 363.471 454.443 363.332C455.651 363.193 457.262 363.193 459.275 363.193C463.033 363.054 465.448 362.776 466.656 362.221C467.596 361.665 468.401 360.97 469.206 359.997C469.877 359.025 470.414 358.469 470.682 358.469C470.951 358.469 471.085 358.608 471.219 358.886C471.353 359.164 471.488 359.442 471.488 359.859C471.488 362.499 470.817 364.722 469.475 366.25C468.133 367.779 466.254 368.612 463.972 368.612C463.569 368.612 463.167 368.612 462.764 368.473C462.362 368.473 461.959 368.334 461.422 368.195C461.691 368.89 461.959 369.724 462.093 370.419C462.227 371.113 462.362 371.808 462.362 372.503C462.362 377.088 460.214 380.84 455.785 384.035C451.491 387.092 445.988 388.76 439.412 388.76C433.507 388.76 428.676 387.231 424.918 384.035C421.16 380.979 419.281 376.949 419.281 372.086C419.281 367.917 420.623 364.444 423.307 361.387C425.992 358.33 429.749 356.246 434.447 355.134C433.641 354.162 432.97 353.05 432.568 351.8C432.165 350.549 431.897 349.299 431.897 347.909C431.897 344.574 433.373 341.656 436.326 339.155C439.278 336.654 442.902 335.404 447.196 335.404C450.417 335.404 453.101 335.96 455.249 336.932C457.396 337.905 458.47 339.294 458.47 340.823C458.47 342.351 458.201 343.88 457.53 345.269C456.859 346.659 456.188 347.353 455.651 347.353C455.249 347.353 454.846 346.936 454.175 346.242C453.907 345.825 453.504 345.408 453.37 345.13C452.028 343.602 450.686 342.49 449.478 341.934C448.136 341.24 446.659 340.962 445.049 340.962C442.231 340.962 439.815 341.795 437.802 343.463C435.789 345.13 434.715 347.214 434.715 349.576C434.715 350.688 434.983 351.661 435.252 352.494C435.654 353.328 436.191 353.884 436.997 354.301C437.936 354.162 438.875 354.162 439.815 354.023C440.754 354.023 441.694 353.884 442.633 353.884C444.781 353.884 446.391 354.023 447.33 354.44C448.27 354.856 448.673 355.412 448.673 356.246C448.673 357.08 448.27 357.635 447.599 358.052C446.928 358.469 445.854 358.608 444.378 358.608C443.17 358.608 441.962 358.469 440.62 358.191C439.412 357.913 438.07 357.357 436.594 356.802V356.941Z" fill="#F2B133"/>
<path d="M512.011 170.041C511.34 169.763 508.924 166.15 507.985 166.15C494.027 166.15 484.767 167.401 479.936 170.041C479.265 171.708 478.459 172.959 478.057 173.792L487.988 180.462C494.296 184.769 497.919 186.853 498.859 186.853H503.556C504.227 184.213 505.032 182.129 505.435 181.018C507.851 178.517 509.059 177.127 509.193 176.571C509.461 175.043 509.193 174.07 508.924 173.376C510.535 171.708 511.474 170.458 511.743 170.18L512.011 170.041ZM559.789 139.611L557.91 141.418L558.581 142.251L560.728 140.445L559.789 139.611ZM555.897 140.584C554.823 139.195 551.468 137.527 546.1 134.748C544.892 134.609 542.208 135.443 541 135.304C539.792 135.165 538.316 132.525 537.108 132.525C536.168 132.386 535.095 132.803 533.887 133.776C533.618 133.498 533.216 132.247 532.545 131.414C531.203 132.525 530.666 133.776 530.532 135.026C531.74 135.165 532.411 135.443 532.679 135.721L529.324 135.999C527.982 133.637 527.177 131.83 526.908 130.302C526.237 130.302 525.432 130.719 524.358 131.552L522.613 128.357C521.808 129.329 521.003 129.746 520.064 129.607C519.124 129.468 515.769 127.94 514.561 127.94C511.206 127.384 507.314 127.106 502.751 126.689C490.135 123.355 483.694 121.826 483.022 121.826C482.083 121.687 480.607 122.104 478.325 122.938L476.715 121.27C413.772 116.129 445.176 121.131 412.967 119.603C410.014 119.603 406.122 119.742 401.291 120.159C396.593 120.576 394.178 120.854 393.909 120.854C392.701 120.715 393.238 120.02 392.03 119.881C390.822 119.742 391.225 121.27 390.017 121.27C388.809 121.131 386.93 120.298 385.991 120.159C378.475 119.603 369.215 120.02 358.747 121.687C357.405 122.799 356.197 123.494 354.452 123.355C355.392 126.689 356.197 129.051 356.6 130.858C362.773 136.416 367.739 140.306 371.765 142.946L374.718 146.42C375.791 147.809 376.731 148.643 377.402 148.643C379.549 148.782 388.541 148.504 404.377 147.809C420.482 146.837 428.803 146.559 428.937 146.559C428.803 148.782 428.803 152.256 428.803 157.119C428.937 161.843 428.803 164.9 428.535 166.706C427.461 173.098 427.192 196.58 427.595 205.889C428.266 221.034 430.413 255.771 430.548 262.163C430.548 263.413 432.695 266.053 432.561 267.165C432.561 267.721 432.427 269.388 431.89 272.167C431.487 274.112 431.353 275.641 431.487 276.613C432.024 278.975 433.634 283.839 436.453 291.342C438.734 297.317 439.539 301.624 439.405 304.125C440.613 304.403 441.553 305.237 441.955 306.07C448.531 311.35 454.168 315.38 458.597 317.742C458.731 316.491 459.268 316.074 460.476 316.074C458.731 307.599 457.255 301.485 456.315 297.178C455.51 295.788 454.571 294.815 453.9 293.982C453.631 288.702 452.96 281.615 451.887 272.445C451.215 266.331 450.947 258.55 451.484 249.241C450.276 248.407 449.739 247.296 449.739 246.045C449.873 244.239 450.679 243.127 452.423 242.432C451.081 241.599 450.142 240.209 450.276 237.986C450.41 235.763 450.947 233.54 451.081 231.317C451.35 226.037 449.873 202.832 450.008 197.413C450.276 190.605 451.215 168.512 452.423 162.399C452.423 162.121 450.544 161.287 450.679 160.037C450.813 158.786 452.96 151.422 453.229 148.504C456.45 146.976 458.06 146.42 458.194 146.42C459.134 146.559 460.61 146.559 462.489 146.559L466.112 146.837C467.857 146.003 467.857 145.725 471.212 143.919C471.481 144.197 471.347 145.447 472.554 145.586C473.762 145.725 480.607 144.197 482.888 144.475C491.88 144.891 498.859 145.308 503.959 145.725C505.703 145.586 509.998 143.224 510.938 143.224C512.145 143.363 513.756 145.169 514.695 145.308C515.366 145.308 515.501 144.058 521.54 144.614C528.519 144.891 534.558 144.891 539.255 144.058L541.537 141.974C541.805 142.251 541.805 142.529 541.402 142.946C541.134 143.224 541.402 143.502 542.073 143.502C543.281 143.641 546.637 141.418 547.576 141.418C548.247 142.668 548.918 143.502 549.052 144.058C549.052 143.78 550.126 141.835 550.26 140.584C550.26 140.028 549.857 139.334 548.918 138.222L551.334 137.944C552.005 139.056 552.139 139.75 552.139 140.306C554.018 140.445 555.226 140.584 555.494 140.862L555.897 140.584ZM547.173 139.611L547.308 137.388L548.784 137.527L548.65 139.75L547.173 139.611ZM540.06 138.222L539.121 137.666L540.195 135.721L541.134 136.277L540.06 138.222ZM538.45 137.11C536.034 136.971 534.558 136.832 534.155 136.555C534.826 136.555 535.9 135.721 537.779 134.054C538.45 134.887 538.584 135.86 538.584 137.11H538.45ZM533.216 141.418L531.74 141.279L532.947 137.805L534.155 137.944L533.216 141.418ZM528.25 140.445C527.579 139.611 526.908 139.056 525.7 138.917C526.505 138.222 527.177 137.805 527.713 137.805C528.116 139.056 528.25 139.889 528.25 140.306V140.445ZM503.69 137.944L503.825 136.416L505.703 136.555L505.569 138.083L503.69 137.944ZM494.564 142.946L494.833 140.167L496.041 140.306L495.772 143.085L494.564 142.946ZM769.42 185.186C769.42 183.936 766.601 178.1 766.333 177.127C760.831 177.683 757.61 177.822 756.402 177.683C755.865 178.933 755.194 179.628 754.254 179.628C753.047 179.628 752.376 178.933 751.168 178.933C749.557 178.933 747.812 181.435 746.47 186.576C745.263 191.717 743.92 193.94 742.176 193.523C736.942 191.995 732.244 191.856 727.681 192.967L728.218 193.523C728.218 194.773 727.279 195.19 725.132 195.19C723.924 195.19 723.655 194.218 722.582 194.218C721.374 194.218 718.958 195.746 714.932 198.664C710.906 201.304 709.027 203.805 709.027 205.611C709.027 206.862 710.503 209.363 710.503 209.502C711.174 219.367 716.005 229.927 724.326 241.46C731.171 249.797 738.284 258.133 745.397 266.748C749.691 272.445 751.839 275.78 751.839 277.586C751.839 279.531 748.752 283.283 748.484 286.479C744.726 289.119 741.773 291.342 739.894 292.87C738.284 294.815 737.076 296.622 736.271 297.733C730.768 299.957 726.071 301.207 722.313 301.207H719.897C718.69 301.207 718.019 299.679 718.019 296.483C718.019 296.205 718.287 293.982 718.958 289.813C719.629 285.645 720.166 282.727 719.897 280.504C718.958 276.335 718.019 273.14 717.079 270.917C706.343 291.759 700.974 303.569 700.974 306.765C700.974 307.738 702.853 309.266 706.611 311.211L712.248 314.963C715.871 317.186 717.884 318.159 718.69 318.159C719.897 318.159 719.226 317.464 720.3 317.464C720.569 317.464 721.911 318.02 724.058 319.131C726.474 320.382 727.816 321.076 728.353 321.076C729.292 321.076 733.587 320.382 734.794 320.382C739.357 320.382 742.176 320.104 743.786 319.409C749.289 317.186 754.657 313.018 760.16 306.626C765.796 300.234 768.749 294.399 768.749 289.119C768.749 282.727 766.333 276.058 761.904 269.249C759.757 266.053 755.06 260.634 747.678 252.992C740.565 245.35 735.6 239.237 732.781 235.068C728.084 227.982 725.668 221.034 725.668 214.921C725.668 212.976 726.205 211.03 727.279 208.807C728.755 205.889 730.634 204.361 732.781 204.361C733.452 204.361 734.66 205.056 736.808 206.306C738.955 207.557 740.163 207.973 740.431 207.973C741.102 212.837 741.639 217.839 742.31 222.702C742.981 228.399 743.92 232.845 745.128 235.763C746.605 237.708 747.678 238.959 748.484 239.653C749.423 241.877 750.094 243.822 750.631 245.35C754.657 242.71 756.804 240.487 757.475 238.959C757.475 237.013 757.475 235.485 757.207 234.234C760.294 217.978 762.441 206.028 763.917 197.83C764.454 195.885 765.394 193.384 767.004 190.466C768.615 187.27 769.554 185.603 769.554 185.325L769.42 185.186ZM503.959 316.63C503.422 316.63 503.019 316.352 502.482 316.074C503.154 314.824 503.422 314.129 503.422 313.851C502.751 313.156 502.482 311.906 502.482 309.683C499.396 310.378 497.517 310.933 496.577 310.933C495.906 310.933 494.967 309.266 493.222 305.792C492.283 303.569 491.343 301.624 490.672 299.679C489.464 297.733 488.793 296.483 488.793 295.927V291.481C489.062 289.535 489.062 288.007 489.062 287.312C488.793 287.312 488.793 287.868 487.586 287.868C487.317 287.868 487.317 287.173 487.317 285.645C487.317 285.367 487.854 283.005 488.928 278.281C487.317 278.559 486.378 278.837 486.109 278.837C486.109 278.281 486.378 277.586 487.049 276.891H488.928V274.668C488.391 274.668 487.72 275.224 487.049 275.919C486.378 273.279 485.841 271.194 485.572 270.083C486.512 268.415 488.122 265.637 489.33 265.359C490.538 255.771 491.478 248.685 491.88 243.961C493.491 238.264 494.967 234.096 496.175 231.456C495.906 231.178 495.504 230.761 494.967 229.927C495.906 227.704 496.577 226.176 497.383 225.203C499.933 217.283 501.14 213.392 501.409 213.115C502.885 210.891 503.556 209.641 503.556 209.641C503.556 208.946 503.019 207.418 501.946 204.917C500.469 201.721 499.53 199.776 499.396 198.525H497.517C495.906 199.22 494.967 199.776 494.698 199.776C494.967 199.776 492.82 199.498 488.257 199.22C484.499 198.942 482.083 198.942 480.875 199.22C479.936 206.862 479.265 211.308 478.996 212.698C474.433 227.426 472.152 242.154 471.883 256.883C471.883 258.133 471.615 260.079 471.347 263.274C471.078 266.47 470.81 268.138 470.81 268.415C470.81 275.502 471.078 280.504 471.481 283.144C472.152 285.089 472.957 286.618 473.36 287.312C474.031 289.813 474.299 291.759 474.299 293.426C477.386 299.123 479.936 303.569 481.68 306.209C482.888 308.432 484.499 310.378 486.646 311.628C492.82 315.38 497.114 317.325 499.664 317.325C500.604 317.325 503.019 316.352 503.69 316.352L503.959 316.63ZM635.481 318.159C635.481 317.464 634.945 315.935 633.871 313.295C632.663 310.655 632.26 308.849 631.992 308.154C629.845 294.815 628.368 285.089 627.429 278.698C625.819 268.415 624.879 260.079 624.342 253.409L622.732 215.755C622.732 215.06 623.269 213.115 624.208 209.641C625.416 205.889 625.819 203.944 625.819 203.249C625.819 197.83 622.195 195.19 615.35 195.19C608.908 195.19 605.553 195.19 604.882 195.468C603.272 196.163 602.064 197.136 601.124 198.664C600.856 204.361 600.588 207.973 599.917 209.502C595.89 220.757 593.475 227.704 592.804 230.344C592.535 230.344 593.34 229.371 591.596 229.371C590.925 229.371 590.388 229.649 590.12 230.344C589.851 231.594 589.851 232.011 589.851 232.011C589.851 236.18 587.435 239.931 585.288 243.544C584.751 245.767 584.617 247.434 584.617 248.685L583.678 247.434C583.678 246.74 584.214 245.211 584.214 244.933C582.604 248.129 581.664 249.797 581.128 250.352C580.859 249.102 581.128 244.933 581.664 238.125C582.201 229.788 582.336 223.119 582.336 218.394C582.336 214.226 582.067 210.336 581.799 207.14C581.262 205.472 578.98 203.944 574.686 202.693C570.66 201.165 567.304 200.47 564.889 200.47C563.681 200.47 559.655 201.443 558.984 201.443C559.252 201.999 559.52 202.693 559.52 203.388C559.52 206.028 557.641 210.752 553.884 217.422C550.797 222.563 547.979 227.565 544.892 232.706C543.684 235.207 541.268 240.765 538.047 249.38C535.497 256.466 532.813 261.885 530.263 265.081L529.726 245.906C530.934 231.456 531.874 220.618 533.082 213.531C533.35 211.308 535.9 205.889 535.9 204.917C535.9 202.693 533.753 200.748 529.458 199.081C525.834 197.552 523.016 196.858 520.735 196.858C516.172 196.858 513.89 207.001 513.89 227.148C513.89 233.262 514.158 237.708 514.561 240.487C513.89 241.182 513.353 242.432 513.353 244.656C513.353 267.304 514.83 285.923 517.648 300.512C518.319 302.18 519.795 303.43 522.211 304.264C525.834 305.514 527.713 305.931 527.848 305.931C530.934 307.599 533.082 309.127 534.021 310.378C536.839 303.013 538.987 294.954 540.195 286.062C540.866 278.975 541.671 271.611 542.342 264.247C543.818 252.159 544.892 244.517 545.697 241.182C546.905 236.458 548.515 231.872 551.2 227.148C554.286 221.312 556.836 218.117 559.252 217.839V251.047C558.581 251.742 558.313 253.687 558.581 257.439C558.849 259.106 559.118 262.302 559.789 267.026C560.46 270.778 560.728 272.862 560.728 273.695C560.728 278.837 562.204 285.506 565.291 294.121C569.854 294.121 572.002 297.317 571.733 297.317C572.941 297.317 572.002 296.622 573.209 296.622C572.941 296.622 576.296 298.289 583.141 302.041C587.838 288.563 590.522 279.392 591.193 275.224C592.804 264.942 596.159 252.159 600.99 236.597C601.661 234.373 602.869 233.401 604.614 233.401C604.882 241.321 605.553 250.352 607.03 260.912C607.566 264.803 608.64 273.695 610.787 287.173C611.458 285.923 612.398 284.672 613.606 283.978C613.874 284.533 613.874 284.95 613.874 285.506C613.874 286.757 611.995 288.424 611.995 289.258C611.727 292.731 611.995 295.093 612.264 296.344C613.874 306.626 615.35 312.601 616.827 314.268C621.524 320.382 627.966 323.3 636.018 323.578V318.714L635.481 318.159ZM697.485 250.769C697.485 250.491 696.948 247.851 696.277 242.71C695.606 237.569 695.338 234.096 695.338 231.872C695.069 214.921 694.667 205.333 693.861 203.11C692.251 199.637 691.043 197.413 690.104 196.163C688.225 195.885 682.051 194.218 681.112 194.218C677.086 194.218 672.12 195.19 666.349 196.858C660.712 198.525 656.149 200.609 652.526 202.971C641.387 226.314 635.884 247.434 635.884 266.609C635.884 274.946 636.823 282.032 638.702 287.729C640.179 289.952 641.252 291.62 642.46 292.87C643.668 295.51 644.607 298.011 644.876 299.818C650.781 306.487 654.673 310.1 656.283 310.933C659.102 312.184 661.249 312.879 662.994 313.156C662.994 312.184 662.994 311.489 663.262 311.211C664.202 313.156 665.41 314.129 667.02 314.129C668.228 314.129 670.778 314.685 671.583 314.685C672.522 313.434 673.194 312.74 673.462 312.045C674.133 313.573 675.072 314.268 676.28 314.268C677.488 314.268 681.246 313.295 681.514 313.018C682.185 313.018 681.783 311.35 683.393 311.35C683.93 311.35 684.064 311.628 684.064 311.906C684.064 312.184 684.333 312.184 685.004 312.184C688.627 312.184 690.238 307.738 692.117 304.125C692.385 302.458 691.58 300.651 690.506 299.401C684.601 304.125 681.246 306.487 680.575 306.487C673.462 306.487 667.691 303.291 663.262 296.9C659.504 291.203 657.626 285.089 657.626 278.281C657.626 277.586 657.626 276.613 657.357 274.807C657.089 273.279 657.089 272.306 657.357 271.611C657.357 270.361 657.894 269.666 658.565 269.11C663.799 267.86 670.241 265.914 677.757 262.719C680.843 261.468 686.748 258.967 695.74 255.077C696.948 253.548 697.351 252.159 697.351 250.908L697.485 250.769ZM680.575 226.87C680.575 227.843 678.964 232.011 678.696 233.262C678.696 235.902 678.696 238.125 678.964 239.376C678.025 239.931 677.488 240.07 677.488 240.348C677.22 245.072 676.951 248.685 676.951 251.464C676.012 253.409 672.388 253.409 669.57 254.104C664.067 255.771 660.846 256.605 659.773 256.605H657.626C657.357 256.327 657.089 255.077 657.089 253.131C657.089 251.881 658.565 246.045 661.383 235.207C664.47 224.369 666.349 218.256 667.02 216.727C668.899 213.531 670.778 210.613 672.522 208.39C673.73 207.14 675.072 206.723 677.086 206.862C679.233 216.171 680.441 222.841 680.441 226.731L680.575 226.87Z" fill="#AB3235"/>
<path d="M76.4921 314.835L79.0421 300.245C69.5134 299.967 60.7899 295.799 53.1401 288.018C45.3562 279.681 41.3299 270.511 41.3299 260.229C41.3299 253.559 43.2088 241.332 46.9666 223.685C47.235 222.296 48.8455 219.239 51.2613 214.793C51.9323 213.82 52.3349 212.848 52.8717 212.014L41.7326 191.45L29.5198 198.258C29.5198 198.814 29.3855 199.509 29.3855 200.342C29.3855 203.121 28.8487 205.344 28.0435 206.734C28.3119 209.791 27.5066 213.403 25.0909 217.572C25.6278 217.572 26.433 218.128 27.5066 218.961L26.1646 220.351C25.8962 220.351 25.8962 218.683 24.5541 218.683C23.212 218.683 22.4068 218.961 22.4068 219.795C20.5279 228.965 19.7227 233.412 19.7227 232.578V258.7C26.1646 272.873 29.654 280.098 29.9224 280.932C35.5591 290.658 41.7326 297.605 48.7113 301.218C52.7375 305.386 56.4953 310.111 59.4479 310.111C60.7899 310.111 60.7899 309.277 62.132 309.277C63.2057 309.277 66.4266 313.723 67.7687 313.723C69.6476 313.723 70.4528 314.557 70.7212 314.557C70.7212 313.723 71.2581 312.89 72.0633 312.056C73.6738 313.584 75.1501 314.557 76.6263 314.974L76.4921 314.835Z" fill="#AB3235"/>
<path fill-rule="evenodd" clip-rule="evenodd" d="M181.992 247.722C192.729 243.831 201.587 240.496 205.21 238.551C210.176 235.911 214.739 232.437 220.375 229.103C218.765 232.021 216.483 236.884 216.081 241.886C215.41 250.084 220.375 283.987 220.375 283.987L214.739 292.463H182.395C181.724 280.93 180.919 266.202 180.919 258.976C180.919 255.642 181.321 251.751 181.858 247.861L181.992 247.722Z" fill="#201E1E"/>
<path fill-rule="evenodd" clip-rule="evenodd" d="M268.804 219.514C279.272 220.209 286.519 222.293 291.485 224.378C290.411 226.601 288.935 229.935 287.056 234.243C280.614 249.527 277.393 274.121 283.298 292.323H260.483C254.578 273.287 260.081 235.771 268.804 219.514Z" fill="#201E1E"/>
<path fill-rule="evenodd" clip-rule="evenodd" d="M385.313 229.098C387.997 230.488 390.547 232.155 392.963 233.823C395.245 235.49 400.479 239.242 408.397 242.854C407.86 244.799 407.323 246.884 406.384 249.524C403.029 259.25 402.76 264.53 401.821 268.698C401.15 271.755 401.552 285.65 401.687 292.18H358.606C361.156 289.124 366.793 282.593 369.074 279.258C372.161 274.812 375.785 265.503 380.616 254.804C384.24 246.884 385.179 234.656 385.448 228.959L385.313 229.098Z" fill="#201E1E"/>
<path d="M201.178 207.848L198.762 211.043L199.701 211.738L202.117 208.264L201.178 207.709V207.848ZM197.42 213.961L196.749 216.462L197.688 217.018L198.628 214.1H197.42V213.961ZM256.471 259.675C256.739 253.561 255.531 244.947 253.384 234.109C253.116 233.414 250.029 230.635 250.029 229.384C250.029 228.69 250.566 228.69 251.237 229.384C251.237 229.662 250.7 229.107 249.626 227.439C249.895 224.521 249.358 222.576 248.15 221.326C241.305 214.656 236.34 211.043 233.656 210.21C233.656 211.877 233.656 212.85 233.387 213.128C232.179 211.877 231.911 211.182 232.179 210.488C230.972 210.21 229.764 209.237 229.093 207.57C231.911 204.652 233.387 202.707 233.387 201.873C233.387 197.982 229.764 196.037 222.651 196.037C220.235 196.037 216.477 197.01 211.243 198.677C208.693 199.65 206.68 200.344 205.338 200.9C203.459 203.123 201.983 204.791 201.043 206.041C202.52 206.736 203.191 207.987 202.922 209.515C200.372 213.267 198.359 216.879 196.749 220.77C195.273 224.521 193.394 230.357 191.246 238.416C188.16 249.254 186.549 257.035 186.549 262.037C186.549 268.707 187.489 272.597 189.367 274.264L188.428 275.515L186.817 273.987C188.294 276.904 188.965 279.405 188.965 281.629C188.965 283.157 188.428 284.269 187.757 285.519C188.696 289.271 189.367 292.189 189.636 293.856C191.112 296.774 194.87 301.22 200.775 307.195C208.156 314.281 213.659 318.033 217.685 318.033C218.893 318.033 220.772 317.06 221.04 317.06C220.772 315.532 221.04 314.559 221.577 314.142C222.516 316.365 223.188 317.338 223.993 317.06L231.106 312.614C234.192 310.391 236.34 307.195 237.011 303.026C236.742 303.026 237.548 303.721 238.89 305.25L248.15 288.993C253.384 277.877 256.202 268.151 256.471 259.536V259.675ZM246.942 227.3L246.003 222.854H247.479L248.15 227.3H246.942ZM238.621 218.408L237.413 217.852L238.353 215.351H239.292L238.621 218.269V218.408ZM249.76 235.359V233.414H250.968V235.359H249.76ZM229.764 213.267C228.556 213.822 227.348 213.267 226.14 212.016L227.348 209.376C227.348 210.071 228.958 212.016 229.764 213.267ZM225.201 214.517C224.53 214.239 223.724 213.961 223.322 213.544C223.993 212.85 224.261 212.016 224.261 211.877C224.932 212.572 225.201 213.406 225.201 214.517ZM239.024 253.561C237.145 252.867 236.206 251.894 236.206 250.365C236.206 249.115 236.474 248.142 237.145 247.448C238.353 248.698 239.024 250.643 239.024 253.561ZM242.782 260.925L241.574 260.37L242.513 258.424L243.721 258.98L242.782 260.925ZM236.071 268.012C234.864 273.848 232.448 280.239 229.361 287.464C223.456 298.997 218.49 304.972 214.196 305.389C210.841 302.888 208.291 297.469 206.143 288.854C204.533 281.906 203.728 276.071 203.728 271.208C203.728 261.62 206.143 250.088 210.572 236.749C214.867 224.66 218.624 217.018 221.98 213.822C226.006 221.464 228.824 225.911 230.569 227.161C231.777 228.829 232.448 229.662 232.448 229.384C232.448 229.94 231.777 230.357 230.3 230.635C230.569 230.913 230.3 233.831 231.508 233.831C232.179 233.831 232.716 234.525 232.716 235.776C233.387 240.5 233.924 243.835 234.192 246.058C235.803 255.09 236.34 262.593 236.071 267.873V268.012ZM233.253 283.296L232.314 282.74L233.924 279.267L234.864 279.544L233.253 283.296ZM238.756 288.993V287.048H239.963V288.993H238.756ZM188.16 268.151H186.952L187.623 261.759H189.099L188.16 268.151Z" fill="#AB3235"/>
<path d="M274.868 207.848L272.452 211.043L273.391 211.738L275.807 208.264L274.868 207.709V207.848ZM271.11 213.961L270.439 216.462L271.378 217.018L272.318 214.1H271.11V213.961ZM330.161 259.675C330.429 253.561 329.221 244.947 327.074 234.109C326.806 233.414 323.719 230.635 323.719 229.384C323.719 228.69 324.256 228.69 324.927 229.384C324.927 229.662 324.39 229.107 323.316 227.439C323.585 224.521 323.048 222.576 321.84 221.326C314.995 214.656 310.03 211.043 307.346 210.21C307.346 211.877 307.346 212.85 307.077 213.128C305.869 211.877 305.601 211.182 305.869 210.488C304.661 210.21 303.454 209.237 302.783 207.57C305.601 204.652 307.077 202.707 307.077 201.873C307.077 197.982 303.454 196.037 296.341 196.037C293.925 196.037 290.167 197.01 284.933 198.677C282.383 199.65 280.37 200.344 279.028 200.9C277.149 203.123 275.673 204.791 274.733 206.041C276.21 206.736 276.881 207.987 276.612 209.515C274.062 213.267 272.049 216.879 270.439 220.77C268.962 224.521 267.084 230.357 264.936 238.416C261.849 249.254 260.239 257.035 260.239 262.037C260.239 268.707 261.178 272.597 263.057 274.264L262.118 275.515L260.507 273.987C261.984 276.904 262.655 279.405 262.655 281.629C262.655 283.157 262.118 284.269 261.447 285.519C262.386 289.271 263.057 292.189 263.326 293.856C264.802 296.774 268.56 301.22 274.465 307.195C281.846 314.281 287.349 318.033 291.375 318.033C292.583 318.033 294.462 317.06 294.73 317.06C294.462 315.532 294.73 314.559 295.267 314.142C296.206 316.365 296.877 317.338 297.683 317.06L304.796 312.614C307.882 310.391 310.03 307.195 310.701 303.026C310.432 303.026 311.238 303.721 312.58 305.25L321.84 288.993C327.074 277.877 329.892 268.151 330.161 259.536V259.675ZM320.632 227.3L319.693 222.854H321.169L321.84 227.3H320.632ZM312.311 218.408L311.103 217.852L312.043 215.351H312.982L312.311 218.269V218.408ZM323.45 235.359V233.414H324.658V235.359H323.45ZM303.454 213.267C302.246 213.822 301.038 213.267 299.83 212.016L301.038 209.376C301.038 210.071 302.648 212.016 303.454 213.267ZM298.891 214.517C298.22 214.239 297.414 213.961 297.012 213.544C297.683 212.85 297.951 212.016 297.951 211.877C298.622 212.572 298.891 213.406 298.891 214.517ZM312.714 253.561C310.835 252.867 309.896 251.894 309.896 250.365C309.896 249.115 310.164 248.142 310.835 247.448C312.043 248.698 312.714 250.643 312.714 253.561ZM316.472 260.925L315.264 260.37L316.203 258.424L317.411 258.98L316.472 260.925ZM309.761 268.012C308.553 273.848 306.138 280.239 303.051 287.464C297.146 298.997 292.18 304.972 287.886 305.389C284.53 302.888 281.981 297.469 279.833 288.854C278.223 281.906 277.417 276.071 277.417 271.208C277.417 261.62 279.833 250.088 284.262 236.749C288.557 224.66 292.314 217.018 295.67 213.822C299.696 221.464 302.514 225.911 304.259 227.161C305.467 228.829 306.138 229.662 306.138 229.384C306.138 229.94 305.467 230.357 303.99 230.635C304.259 230.913 303.99 233.831 305.198 233.831C305.869 233.831 306.406 234.525 306.406 235.776C307.077 240.5 307.614 243.835 307.882 246.058C309.493 255.09 310.03 262.593 309.761 267.873V268.012ZM306.943 283.296L306.004 282.74L307.614 279.267L308.553 279.544L306.943 283.296ZM312.445 288.993V287.048H313.653V288.993H312.445ZM261.849 268.151H260.642L261.313 261.759H262.789L261.849 268.151Z" fill="#AB3235"/>
<path d="M408.515 227.992H406.904V229.243H408.515V227.992ZM389.726 228.965L389.055 228.409L389.726 226.464V228.965ZM415.896 160.325C415.896 156.157 413.749 153.656 409.454 152.405C407.844 151.988 404.757 151.71 399.657 151.71C398.718 151.71 397.51 153.239 397.241 153.239C396.57 152.266 396.033 151.71 395.765 151.71C394.557 154.628 393.886 158.658 393.618 163.521C393.349 169.635 393.483 165.466 393.215 166.3C393.215 166.995 392.678 167.967 392.007 169.218C391.336 170.468 391.068 171.163 391.068 171.719C391.068 172.969 393.483 173.942 393.483 174.637C391.336 178.11 391.739 175.887 392.678 179.083C391.068 182.001 389.189 180.195 389.994 184.919C390.397 187.142 390.531 188.393 389.726 188.809C390.397 186.864 391.202 185.336 391.605 184.363C392.141 184.919 392.276 185.336 392.276 186.03C392.276 186.725 392.544 183.807 391.47 187.559C390.397 191.171 390.531 190.199 390.531 190.616C390.531 193.117 389.994 196.035 389.323 199.508C389.323 199.786 390.531 201.731 390.531 202.009C390.531 203.677 390.263 205.761 389.591 207.428C383.955 204.51 380.6 202.982 379.66 202.982C378.721 202.982 374.426 204.927 373.487 204.927C371.608 203.955 369.729 203.399 367.85 202.982C367.582 202.982 364.226 203.955 357.919 205.9C350.269 222.435 346.511 230.771 346.243 230.91C344.632 235.635 343.424 239.247 342.485 242.026C339.398 251.058 337.251 257.449 336.58 260.923C334.701 268.287 333.761 272.039 333.761 271.761L332.822 293.576C332.822 295.521 334.969 298.995 339.264 303.858C340.874 304.136 341.814 304.413 342.082 304.413C342.082 305.108 341.411 306.914 341.411 307.053C343.022 308.026 344.766 308.582 346.914 308.304C346.914 308.999 346.914 309.832 346.645 310.249C349.061 313.445 351.208 314.973 352.819 314.696H354.698C354.698 313.723 354.966 313.167 355.235 313.028C356.845 314.696 357.784 315.529 358.321 315.529C358.858 314.279 359.261 313.028 359.932 311.778C360.603 313.445 360.871 314.696 361.14 315.529C364.226 315.807 366.105 315.807 367.045 316.085C366.374 313.862 367.582 311.639 370.132 309.693C373.755 306.776 375.634 304.969 375.768 304.83C376.305 305.525 376.439 305.803 376.439 306.081C377.11 303.858 378.855 301.218 381.002 297.744C383.15 293.992 384.76 292.325 385.968 292.325C387.578 292.325 388.786 293.992 389.055 297.188C389.591 299.828 389.591 302.051 388.786 303.302C388.786 302.051 389.323 302.051 389.994 302.746C389.994 299.55 390.665 296.355 390.665 296.355C390.665 296.632 390.397 295.799 389.994 293.715C389.726 292.464 389.994 290.797 391.202 288.573C391.873 287.879 393.081 286.35 393.752 286.35V288.018C393.752 289.963 393.215 293.715 392.141 299.133C392.678 297.466 393.752 295.66 395.497 294.409C395.765 292.186 395.765 290.658 396.033 289.685C396.57 289.963 396.704 290.38 396.704 291.213C396.704 289.268 397.375 287.323 398.852 285.517C399.12 284.822 398.852 283.849 398.583 282.599C398.315 281.348 398.315 280.376 398.583 279.403C398.852 279.959 399.12 280.653 399.12 281.626C399.12 282.182 398.852 279.959 398.449 274.679C398.449 274.401 398.718 273.428 398.986 271.483C399.254 269.955 399.254 268.982 398.986 268.565C399.925 268.287 400.462 267.592 400.462 266.342C400.462 266.064 400.194 264.813 399.925 262.59C399.657 260.923 399.657 259.395 399.925 258.422C400.462 258.422 400.865 258.7 401.133 259.117C401.133 256.893 401.402 255.365 401.67 254.67C402.341 255.921 402.341 256.893 402.207 257.866L403.415 254.948L400.999 253.003C400.999 254.531 400.462 254.67 399.523 253.698C400.731 251.475 401.402 249.946 401.67 248.974C402.341 250.224 403.146 250.919 403.817 251.475C403.817 249.251 402.878 249.251 402.878 248.557C403.549 248.279 404.086 248.279 404.354 248.001C404.623 245.5 404.891 243.555 404.891 242.165C405.562 242.86 406.099 243.138 406.367 242.86C405.696 240.637 405.696 238.969 406.099 237.441C406.77 235.218 407.038 233.689 407.038 233.55C407.038 232.578 404.623 230.077 404.623 229.799C405.831 226.603 406.502 224.102 406.77 222.435C407.441 222.435 408.246 222.712 408.649 222.99C408.38 216.877 408.112 212.152 408.112 208.54C408.112 203.816 408.38 200.481 409.051 198.675C409.857 196.729 409.991 196.59 409.723 191.449C409.588 188.254 416.567 186.447 410.528 181.445L411.736 180.473C412.541 179.778 412.407 180.473 413.883 171.163C415.493 161.576 415.896 163.243 415.896 160.325ZM390.128 304.136L389.457 305.664L390.397 306.22L391.068 304.552L390.128 304.274V304.136ZM404.757 319.976C404.757 319.42 404.354 320.67 402.744 316.224C401.133 312.056 401.536 312.056 401.536 310.666C401.267 310.666 400.865 311.222 400.06 311.917C399.523 311.222 399.389 310.388 399.12 310.249C399.389 307.053 398.583 304.552 397.107 293.437C397.375 295.382 397.107 296.91 396.436 297.883C396.168 297.605 395.899 296.632 395.228 295.938C394.289 298.161 393.752 299.828 393.752 301.079C394.423 301.079 394.96 301.357 394.96 301.773C394.289 302.468 393.483 302.746 392.812 302.329C391.336 316.085 389.726 315.807 389.726 316.085C389.726 320.809 389.457 319.142 389.726 318.169C390.934 319.837 392.141 321.365 393.081 322.338C393.081 321.643 393.349 321.087 393.752 321.087C394.691 321.087 394.289 323.032 395.362 323.032C396.302 323.032 395.631 322.338 396.57 322.338C397.51 322.338 399.12 326.089 400.194 326.784C400.194 326.784 401.133 324.283 402.341 324.283C403.549 324.283 404.488 324.839 404.757 324.839V320.114V319.976ZM367.984 312.472L367.716 314.696H368.655L369.192 312.472H367.984ZM401.939 192.283V191.588L403.415 190.894L403.683 191.588L402.073 192.283H401.939ZM406.904 207.706H405.696L406.367 203.538H407.575L406.904 207.706ZM400.194 215.348V213.125H401.402V215.348H400.194ZM393.081 210.902L392.41 208.957L393.349 208.401L394.02 210.902H393.081ZM402.878 221.045V219.517H403.817V221.045H402.878ZM400.328 223.685V217.571H401.536V223.685H400.328ZM398.718 222.435V220.767H399.657V222.435H398.718ZM404.623 233.689V232.022H405.831V233.689H404.623ZM396.033 229.243V226.325H397.241V229.243H396.033ZM399.791 238.83L398.852 238.552L400.06 236.051L400.731 236.607L399.791 238.83ZM397.912 244.527V242.86H399.12V244.527H397.912ZM391.47 240.081H390.531L391.202 237.163H392.141L391.47 240.081ZM396.973 273.706L396.033 273.15L396.973 271.483L397.644 272.039L396.973 273.706ZM387.176 266.064L386.236 265.508L387.176 263.98L387.847 264.258L387.176 265.925V266.064ZM396.168 278.569L393.752 277.597C394.02 277.597 396.168 276.902 396.839 276.902L396.168 278.569ZM388.384 274.123L387.444 273.845L388.384 272.178L389.055 272.456L388.384 274.123ZM395.497 285.378V282.877H396.436V285.378H395.497ZM387.444 227.576C387.444 241.609 387.176 250.224 386.907 252.864V257.588C386.236 256.893 385.431 256.338 385.028 256.338C384.76 258.005 384.492 258.978 384.357 259.811C383.686 260.784 382.881 261.479 382.479 261.757V263.702C380.331 263.98 379.392 265.369 379.123 267.592V272.733C378.184 272.733 377.513 272.456 376.976 272.039C373.218 277.18 369.326 282.182 365.3 287.045C360.334 293.159 355.503 296.91 351.343 298.578C351.343 287.462 351.611 279.681 352.282 274.957C353.221 268.843 356.04 258.978 360.603 245.5C366.776 227.02 372.279 217.71 376.976 217.71C381.002 217.71 387.444 221.601 387.444 227.576ZM389.055 288.018L388.115 287.462L388.786 285.933L389.726 286.211L389.055 287.879V288.018ZM383.15 292.186H381.942L382.613 288.018H383.552L383.015 292.186H383.15ZM396.704 309.138L396.033 301.218H397.241L397.778 309.138H396.839H396.704Z" fill="#AB3235"/>
<defs>
<linearGradient id="paint0_linear_301_25" x1="288.807" y1="232.944" x2="245.784" y2="106.468" gradientUnits="userSpaceOnUse">
<stop stop-color="#FFCC29"/>
<stop offset="1" stop-color="#FEFEFE"/>
</linearGradient>
</defs>
</svg>
