<svg width="121" height="121" viewBox="0 0 121 121" fill="none" xmlns="http://www.w3.org/2000/svg">
<circle cx="60.1177" cy="60.2637" r="59.5" stroke="white"/>
<path d="M51.2364 66.5605C51.8489 66.8652 52.7677 66.8652 53.2271 66.459L57.5145 63.6152L55.0646 62.8027C52.7677 61.9902 50.6239 60.9746 48.7864 59.6543L42.5083 62.1934L51.2364 66.5605Z" fill="white"/>
<path d="M68.9991 66.5606L77.5741 62.2949L71.296 59.7559C69.4585 61.0762 67.4679 62.0918 65.0179 62.9043L62.5679 63.7168L66.8554 66.5606C67.4679 66.7637 68.3866 66.8652 68.9991 66.5606Z" fill="white"/>
<path d="M65.4771 68.1855C65.3239 68.084 65.0177 67.9824 64.8645 67.8809L60.1177 64.7324L55.3708 67.8809C55.2177 67.9824 54.9114 68.084 54.7583 68.1855L60.1177 75.2949L65.4771 68.1855Z" fill="white"/>
<path d="M47.2552 44.4199C46.6427 44.623 46.3364 44.9277 46.3364 45.334V50.1074C46.3364 54.6777 50.3177 58.9434 56.4427 60.9746L59.3521 61.9902C59.8114 62.0918 60.2708 62.0918 60.7302 61.9902L63.6396 60.9746C69.9177 58.9434 73.7458 54.6777 73.7458 50.1074V46.0449C73.7458 45.4355 73.1333 45.0293 72.2146 45.0293H67.6208C64.2521 45.0293 61.4958 43.2012 61.4958 40.9668V40.459L47.2552 44.4199Z" fill="white"/>
<path d="M44.1925 54.0684C43.58 52.7481 43.2738 51.4277 43.2738 50.0059V45.334C43.2738 44.1152 44.3457 42.998 46.03 42.4902L64.7113 37.4121V40.9668C64.7113 42.084 66.0894 42.998 67.7738 42.998H72.3675C74.9707 42.998 76.9613 44.3184 76.9613 46.0449V50.1074C76.9613 51.4277 76.655 52.8496 76.0425 54.1699C79.5644 52.0371 81.8613 49.0918 82.1675 45.8418L82.4738 43.3027C82.78 39.8496 79.8707 36.7012 75.1238 35.2793L66.2425 32.7402C62.2613 31.623 57.8207 31.623 53.9925 32.7402L45.1113 35.2793C40.3644 36.7012 37.455 39.8496 37.7613 43.3027L38.0675 45.8418C38.3738 48.9902 40.5175 52.0371 44.1925 54.0684Z" fill="white"/>
<path d="M53.9927 88.7012H66.2427V78.5449H53.9927V88.7012ZM57.0552 80.5762H63.1802V82.6074H57.0552V80.5762ZM57.0552 84.6387H63.1802V86.6699H57.0552V84.6387Z" fill="white"/>
<path d="M83.0866 83.623V81.5918H84.4648C86.3023 81.5918 87.6804 80.6777 87.6804 79.459C87.6804 78.5449 86.7616 77.7324 85.5366 77.4277L82.1679 76.7168L75.4304 87.0762L72.6741 86.2637L86.1491 65.748L80.4835 63.4121L70.8366 68.1855C70.2241 68.4902 69.3054 68.6934 68.5397 68.7949L62.5679 76.5137H69.3054V88.7012H93.8054V83.0137C92.4273 83.4199 90.896 83.623 89.5179 83.623H83.0866Z" fill="white"/>
<path d="M96.2551 74.7871L89.977 64.7324L83.3926 74.8887L86.4551 75.5996C89.6707 76.3105 91.5082 78.6465 90.4363 80.8809C90.4363 80.9824 90.2832 81.084 90.2832 81.084C90.1301 81.2871 89.977 81.4902 89.8238 81.6934C93.9582 81.5918 97.0207 79.2559 96.8676 76.5137C96.8676 75.9043 96.5613 75.2949 96.2551 74.7871Z" fill="white"/>
<path d="M51.696 68.6934C50.7772 68.6934 50.0116 68.4902 49.3991 68.084L39.9054 63.3105L33.0147 66.1543C29.0335 67.7793 26.5835 70.7246 26.5835 73.873V88.7012H38.8335V76.5137H41.896V88.7012H51.0835V76.5137H57.821L51.696 68.6934Z" fill="white"/>
</svg>
