<svg width="121" height="121" viewBox="0 0 121 121" fill="none" xmlns="http://www.w3.org/2000/svg">
<circle cx="60.1177" cy="60.2637" r="59.5" stroke="white"/>
<g clip-path="url(#clip0)">
<path d="M98.5107 76.375L66.7491 58.3374L29.6409 37.2637H26.7409L26.1488 38.1182C24.5859 40.3736 23.9181 42.6804 24.2179 44.789C24.5596 47.1925 26.1674 49.2734 28.8678 50.8069L57.8364 67.2582L61.6573 65.0883L88.4387 82.0951C91.1028 83.608 95.6884 83.6979 98.5107 82.0951C101.288 80.518 101.288 77.952 98.5107 76.375Z" fill="white"/>
<path d="M44.4127 63.448L21.7247 76.3326C18.9479 77.9095 18.9479 80.4755 21.7247 82.0525C24.3626 83.5505 28.9259 83.6828 31.7967 82.0525L54.4849 69.1678L44.4127 63.448Z" fill="white"/>
<path d="M97.1774 44.9255L84.3074 52.2343L80.9499 50.3276L93.8198 43.0187L90.4625 41.1121L77.5926 48.4209L74.2352 46.5142L87.1052 39.2054L83.748 37.2988L66.9611 46.8321C64.9074 47.9984 63.6812 49.547 63.5078 51.1927C63.464 51.6097 63.2975 52.0198 63.0215 52.4099L73.9263 58.6028C74.6132 58.4458 75.3355 58.3514 76.0696 58.3265C78.9676 58.2283 81.6944 57.5317 83.748 56.3655L100.535 46.8322L97.1774 44.9255Z" fill="white"/>
</g>
<defs>
<clipPath id="clip0">
<rect width="81" height="46" fill="white" transform="translate(19.6177 37.2637)"/>
</clipPath>
</defs>
</svg>
